<svg id="bank_bca" data-name="bank/bca" xmlns="http://www.w3.org/2000/svg" width="70" height="50" viewBox="0 0 70 50">
  <g id="BCA">
    <rect id="Background" width="70" height="50" rx="4" fill="#0060af"/>
    <g id="logo" transform="translate(6 17)">
      <path id="Fill_1" data-name="Fill 1" d="M5.558,7.1c0-.671.008-2.465-.01-2.686C5.563,1.744,3.5-.139,2.2.008A2.194,2.194,0,0,0,.145,1.423a1.756,1.756,0,0,0,1.208,2.45,8.545,8.545,0,0,1,2.677.934A2.832,2.832,0,0,1,5.3,7.1" transform="translate(2.839 5.693)" fill="#fff"/>
      <path id="Fill_6" data-name="Fill 6" d="M5.13,3.511a2.421,2.421,0,0,0-1.171-2.03A9.4,9.4,0,0,0,1.3.577,1.44,1.44,0,0,1,.361,0,1.919,1.919,0,0,0,.02,1.467,1.746,1.746,0,0,0,1.608,2.794a7.608,7.608,0,0,0,1.6-.181,1.475,1.475,0,0,1,1.652.9" transform="translate(2.71 9.281)" fill="#fff"/>
      <path id="Fill_8" data-name="Fill 8" d="M2.88,0A2.652,2.652,0,0,0,0,2.627c0,1.4,1.2,2.15,1.626,2.685A5,5,0,0,1,2.654,8.535c.028,1.163.027,2.311.033,2.718h.342c-.006-.426-.021-1.645,0-2.754A4.825,4.825,0,0,1,4.054,5.312c.43-.535,1.623-1.285,1.626-2.685A2.649,2.649,0,0,0,2.8,0" transform="translate(5.989 1.541)" fill="#fff"/>
      <path id="Fill_10" data-name="Fill 10" d="M0,7.1c0-.671-.008-2.465.009-2.686C0,1.744,2.053-.139,3.355.008A2.2,2.2,0,0,1,5.414,1.423a1.757,1.757,0,0,1-1.209,2.45,8.56,8.56,0,0,0-2.679.934A2.8,2.8,0,0,0,.3,7.1" transform="translate(9.26 5.693)" fill="#fff"/>
      <path id="Fill_12" data-name="Fill 12" d="M0,3.511a2.422,2.422,0,0,1,1.168-2.03,9.462,9.462,0,0,1,2.664-.9A1.428,1.428,0,0,0,4.767,0a1.912,1.912,0,0,1,.342,1.467A1.747,1.747,0,0,1,3.523,2.794a7.621,7.621,0,0,1-1.6-.181,1.478,1.478,0,0,0-1.653.9" transform="translate(9.819 9.281)" fill="#fff"/>
      <path id="Fill_14" data-name="Fill 14" d="M.2,1.436h0L0,.073.478,0A.6.6,0,0,1,.552,0,.321.321,0,0,1,.793.077.373.373,0,0,1,.886.3.287.287,0,0,1,.73.621v0c.15,0,.249.1.276.283l0,.017a.735.735,0,0,1,0,.187C.977,1.3.856,1.35.672,1.374L.2,1.435ZM.551.768A.461.461,0,0,0,.487.773L.382.788l.067.41.058-.007.03,0a.328.328,0,0,0,.129-.034c.066-.041.063-.124.052-.2C.7.831.667.768.551.768ZM.481.194A.3.3,0,0,0,.428.2L.3.218l.05.349L.406.562l.015,0C.482.551.557.541.59.489L.6.476A.183.183,0,0,0,.617.337C.6.248.571.194.481.194Z" transform="translate(10.098 14.134)" fill="#fff"/>
      <path id="Fill_16" data-name="Fill 16" d="M.97.835c0,.025.008.054.01.079.039.248-.01.454-.306.511C.236,1.5.152,1.247.075.888L.034.694C-.027.35-.053.09.374.01A.366.366,0,0,1,.84.285a.684.684,0,0,1,.028.1L.606.437C.576.352.536.2.418.213.207.237.277.485.3.589L.377.962c.024.113.071.293.254.258C.779,1.192.715.973.7.884" transform="translate(11.397 13.915)" fill="#fff"/>
      <path id="Fill_18" data-name="Fill 18" d="M.091,1.511h0L0,.1.352,0,1.09,1.226.813,1.3.638.993.33,1.08l.04.354-.278.077Z" transform="translate(12.697 13.651)" fill="#fff"/>
      <path id="Fill_20" data-name="Fill 20" d="M.124.495C.234.162.332-.083.753.026c.225.059.364.153.358.4A.831.831,0,0,1,1.078.59L.816.522C.85.386.872.278.694.226.489.173.439.408.41.51L.3.879C.27.989.23,1.17.41,1.217c.149.038.24-.1.294-.3L.521.869.585.655l.43.13-.2.712-.2-.051L.657,1.3H.652a.282.282,0,0,1-.3.118c-.43-.11-.385-.375-.283-.729" transform="translate(3.97 13.602)" fill="#fff"/>
      <path id="Fill_22" data-name="Fill 22" d="M.968,1.557h0l-.3-.074A1.018,1.018,0,0,1,.7,1.2c0-.023.009-.045.013-.063V1.128C.731,1.048.755.939.671.9A.392.392,0,0,0,.548.858L.5.848.421.833l-.13.579L0,1.354.311,0l.5.106c.288.058.38.175.338.433C1.128.647,1.071.827.884.827H.869c.147.051.16.125.133.251L1,1.1c-.021.091-.083.369-.032.417l0,.04ZM.553.257h0L.471.624l.2.049L.7.676C.8.676.856.617.877.495S.871.322.763.3L.553.257Z" transform="translate(5.274 13.865)" fill="#fff"/>
      <path id="Fill_24" data-name="Fill 24" d="M.8.076l.289.032-.124.951c-.06.3-.184.433-.536.392s-.443-.2-.422-.5L.128,0,.419.031.294.961c-.013.1-.038.25.152.269C.616,1.241.654,1.136.673,1" transform="translate(6.771 14.091)" fill="#fff"/>
      <path id="Fill_26" data-name="Fill 26" d="M.284,1.378h0L0,1.36.087,0,.641.022c.3.014.329.261.323.407A.4.4,0,0,1,.809.748a.479.479,0,0,1-.272.07H.5L.32.808l-.036.569ZM.355.207.328.6.475.608H.488C.614.609.675.545.683.4S.626.217.471.211Z" transform="translate(8.174 14.234)" fill="#fff"/>
      <path id="Fill_28" data-name="Fill 28" d="M14.2,1.511,12,5.281A5.032,5.032,0,0,0,8.853,4.176c-3.066,0-4.312,2.154-4.312,3.672,0,1.127.783,2.789,3.511,2.789a7.229,7.229,0,0,0,3.242-1.093L9.114,13.918a12.079,12.079,0,0,1-2.259.342C1.972,14.4,0,11.57,0,8.68,0,4.86,3.606.215,9.579.215a3.977,3.977,0,0,1,1.2.252L11.162,0" transform="translate(33.075 1.344)" fill="#fff"/>
      <path id="Fill_30" data-name="Fill 30" d="M5.036,13.7H0L5.265,3.918,4.078,3.911,6.333,0h6.933l.625,13.7H9.247l0-2.35H6.078L5.036,13.7ZM9.213,4.191h0L7.424,8.177H9.268L9.214,4.191Z" transform="translate(43.099 1.463)" fill="#fff"/>
      <path id="Fill_32" data-name="Fill 32" d="M6.795,13.707H0L2.65,4.059,1.561,4.054,3.787.005H4.18c.648,0,2,0,3.305,0C8.537,0,9.35,0,9.9.005c2.22.011,3.6,1.118,3.6,2.888,0,1.7-1.549,3.039-2.875,3.671a2.572,2.572,0,0,1,1.683,2.786C12.308,11.712,9.784,13.707,6.795,13.707ZM5.736,7.982l-.623,2.252H6.7A1.693,1.693,0,0,0,8.392,9.208a.894.894,0,0,0-.134-.815,1.114,1.114,0,0,0-.88-.411H5.736ZM6.883,3.606,6.412,5.561H7.645a1.393,1.393,0,0,0,1.525-.982.8.8,0,0,0-.078-.7,1.1,1.1,0,0,0-.858-.268Z" transform="translate(20.242 1.457)" fill="#fff"/>
      <g id="group">
        <path id="Fill_3" data-name="Fill 3" d="M8.93,16.836A17.58,17.58,0,0,1,1.744,15.21l-.059-.028-.028-.057A15.3,15.3,0,0,1,0,8.3,14.824,14.824,0,0,1,1.634,1.588l.03-.058.06-.028A17.394,17.394,0,0,1,8.869,0a17.873,17.873,0,0,1,7.214,1.629l.061.026.029.058a15.315,15.315,0,0,1,1.687,6.823,14.855,14.855,0,0,1-1.665,6.715l-.029.058-.062.026A17.72,17.72,0,0,1,8.93,16.836ZM8.869.355A17.006,17.006,0,0,0,1.948,1.8,14.49,14.49,0,0,0,.379,8.3a14.95,14.95,0,0,0,1.589,6.611A17.155,17.155,0,0,0,8.93,16.48a17.338,17.338,0,0,0,6.952-1.441,14.482,14.482,0,0,0,1.6-6.5,14.945,14.945,0,0,0-1.625-6.612A17.466,17.466,0,0,0,8.869.355Z" transform="translate(0 0.012)" fill="#fff"/>
      </g>
    </g>
  </g>
</svg>
