<svg id="bank_mandiri" data-name="bank/mandiri" xmlns="http://www.w3.org/2000/svg" xmlns:xlink="http://www.w3.org/1999/xlink" width="70" height="50" viewBox="0 0 70 50">
  <defs>
    <linearGradient id="linear-gradient" y1="0.5" x2="1" y2="0.5" gradientUnits="objectBoundingBox">
      <stop offset="0" stop-color="#ffca06"/>
      <stop offset="0.331" stop-color="#fbaa18"/>
      <stop offset="0.695" stop-color="#ffc907"/>
      <stop offset="1" stop-color="#faa619"/>
    </linearGradient>
  </defs>
  <g id="MANDIRI">
    <rect id="Background" width="70" height="50" rx="4" fill="#003d79"/>
    <g id="logo" transform="translate(5 14.068)">
      <g id="Logo_Mandiri" data-name="Logo Mandiri" transform="translate(0 6.799)">
        <path id="Fill_1" data-name="Fill 1" d="M.063,2.5C.063,1.6.047.848,0,.177H1.643L1.72,1.33h.046A2.6,2.6,0,0,1,4.091,0,2.177,2.177,0,0,1,6.182,1.441h.032A2.922,2.922,0,0,1,7.143.465,2.469,2.469,0,0,1,8.661,0c1.255,0,2.524.88,2.524,3.377V7.97H9.327v-4.3c0-1.3-.433-2.065-1.347-2.065A1.46,1.46,0,0,0,6.648,2.642a2.864,2.864,0,0,0-.093.654V7.97H4.695V3.457c0-1.087-.418-1.856-1.3-1.856A1.5,1.5,0,0,0,2.03,2.72a1.73,1.73,0,0,0-.109.64V7.97H.063Z" transform="translate(0 3.117)" fill="#fff"/>
        <path id="Fill_3" data-name="Fill 3" d="M2.371,8.146A2.27,2.27,0,0,1,0,5.826c0-1.9,1.567-2.945,4.413-2.945h.063V2.752c0-.508-.2-1.36-1.534-1.36a3.888,3.888,0,0,0-2.029.576L.541.689A5.332,5.332,0,0,1,3.269,0C5.843,0,6.383,1.784,6.383,3.28V6.1A13.188,13.188,0,0,0,6.492,7.97H4.772l-.124-.864H4.6A2.76,2.76,0,0,1,2.371,8.146ZM4.336,4.159c-1.116,0-2.446.253-2.446,1.458a1.013,1.013,0,0,0,1.085,1.12A1.551,1.551,0,0,0,4.461,5.665a1.487,1.487,0,0,0,.062-.432V4.162Z" transform="translate(12.045 3.117)" fill="#fff"/>
        <path id="Fill_5" data-name="Fill 5" d="M.062,2.5C.062,1.6.045.848,0,.177H1.672l.093,1.168h.046A2.708,2.708,0,0,1,4.212,0C5.53,0,6.893.88,6.893,3.345V7.97H4.988V3.57c0-1.121-.4-1.969-1.441-1.969A1.609,1.609,0,0,0,2.059,2.753a2.1,2.1,0,0,0-.077.639V7.97H.062Z" transform="translate(19.684 3.117)" fill="#fff"/>
        <path id="Fill_7" data-name="Fill 7" d="M3.222,11.1C1.355,11.1,0,9.425,0,7.116A4.476,4.476,0,0,1,1.161,3.887a3.109,3.109,0,0,1,2.216-.932A2.385,2.385,0,0,1,5.5,3.98h.032V0H7.437V8.731c0,.84.033,1.707.061,2.193h-1.7L5.718,9.692H5.686A2.7,2.7,0,0,1,3.222,11.1Zm.62-6.625c-1.157,0-1.905,1.011-1.905,2.577,0,1.5.742,2.464,1.89,2.464A1.686,1.686,0,0,0,5.468,8.124a2.266,2.266,0,0,0,.062-.577V6.378a2.959,2.959,0,0,0-.046-.51A1.69,1.69,0,0,0,3.842,4.476Z" transform="translate(27.402 0.163)" fill="#fff"/>
        <path id="Fill_9" data-name="Fill 9" d="M0,7.792H1.923V0H0Z" transform="translate(36.185 3.294)" fill="#fff"/>
        <path id="Fill_11" data-name="Fill 11" d="M.062,2.527C.062,1.471.046.718,0,.015H1.658L1.719,1.5h.064A2.077,2.077,0,0,1,3.843.015a2.053,2.053,0,0,1,.449,0V1.743a2.576,2.576,0,0,0-.558-.064,1.7,1.7,0,0,0-1.7,1.487,3.586,3.586,0,0,0-.061.61V7.808H.062Z" transform="translate(39.392 3.279)" fill="#fff"/>
        <path id="Fill_12" data-name="Fill 12" d="M0,7.792H1.92V0H0Z" transform="translate(44.567 3.294)" fill="#fff"/>
      </g>
      <path id="Flag" d="M20.918.671c-1.153.69-3.874,2.3-4.89,2.9h0a2.324,2.324,0,0,1-2.863-.661h0c-.015-.02-1.078-1.393-1.122-1.445h0A2.8,2.8,0,0,0,9.792.343h0A4.818,4.818,0,0,0,7.342.976h0L2.486,3.843h0s0,0,0,0h0L0,5.312H0l1.285,1.63a2.484,2.484,0,0,0,3.132.67h0s4.344-2.6,4.359-2.606h0c1.878-1.064,3.328-1.064,4.29-.668h0a5.158,5.158,0,0,1,1.615,1.316h0s.982,1.257,1.155,1.477h0a1.445,1.445,0,0,0,1.483.431h0a2.373,2.373,0,0,0,.859-.357h0l4.21-2.521h0a5.571,5.571,0,0,1,3.187-.9h0c1.961.184,2.571,1.6,3.421,2.587h0a2.007,2.007,0,0,0,1.644.894h0a2.43,2.43,0,0,0,1.043-.346h0l5.038-3A21.966,21.966,0,0,0,35.146,1.86h0c-.948-1.116-1.954-.611-2.756-.2h0c-.337.172-1.559,1.011-2.769,1.6h0a2.317,2.317,0,0,1-2.78-.575h0C26.8,2.629,25.7,1.256,25.587,1.087h0A3.06,3.06,0,0,0,23.171,0h0a4.422,4.422,0,0,0-2.253.671" transform="translate(23.195 0)" fill="url(#linear-gradient)"/>
    </g>
  </g>
</svg>
