<svg id="bank_bni" data-name="bank/bni" xmlns="http://www.w3.org/2000/svg" width="70" height="50" viewBox="0 0 70 50">
  <g id="BNI">
    <rect id="Background" width="70" height="50" rx="4" fill="#fff"/>
    <g id="logo" transform="translate(6 17.187)">
      <path id="_46" data-name="46" d="M0,15.43v0l0-9.49,4.6,5.633-4.6,3.858Zm7.723-.009H1.846l3.506-2.942,2.374,2.94Zm7.948,0H10.661l1.283-.932H11.9a6.444,6.444,0,0,1-2.048-.256,5.955,5.955,0,0,1-1.5-1.3c-.151-.16-.638-.743-1.445-1.732L8.494,9.872a17.479,17.479,0,0,0,1.336,1.273,4.711,4.711,0,0,0,2.091,1.08,4.631,4.631,0,0,0,1.232.171c.165,0,.323-.008.47-.017a7.613,7.613,0,0,0,2.052-.616v3.654ZM14.688,10.9a4.265,4.265,0,0,1-2.075-.548,4.928,4.928,0,0,1-1.726-1.58A5.009,5.009,0,0,1,10.1,6.964a4.193,4.193,0,0,1,.28-2.353,2.413,2.413,0,0,1,2.091-1.318c.065,0,.13,0,.193,0a3.491,3.491,0,0,1,1.859.5,2.837,2.837,0,0,1,1.15.91v5.985l-.007,0A3.306,3.306,0,0,1,14.688,10.9Zm-8.532-.629h0C3.791,7.377.156,2.822,0,2.63L0,0H4.88a4.511,4.511,0,0,0-.318,1.628,5.978,5.978,0,0,0,.5,2.737A13.549,13.549,0,0,0,6.536,7.242c.152.225.273.406.379.565.282.424.453.68.818,1.147L6.157,10.268Zm2.75-3.982h0A5.5,5.5,0,0,1,7.849,4.728a7.906,7.906,0,0,1-.963-3.1A7.212,7.212,0,0,1,6.933,0h8.743V2.013A5.034,5.034,0,0,0,13.73,1.6c-.08,0-.16,0-.238.007a4.739,4.739,0,0,0-3.109,1.273A5.163,5.163,0,0,0,9.3,4.388a7.383,7.383,0,0,0-.4,1.9Z" transform="translate(0 0.024)" fill="#e94e0f"/>
      <path id="BNI-2" data-name="BNI" d="M28.316,16.237h0a6.548,6.548,0,0,1-3.461-2.682L16.72,3.317V12.5c0,1.277,0,2.2,1.234,2.917v.07h-4.2v-.07c1.256-.73,1.256-1.677,1.256-2.988V3.036c0-1.311,0-2.259-1.233-2.965V0h3.462V.023A1.464,1.464,0,0,0,17.6.612l.332.471,8.679,10.871V2.965c0-1.278,0-2.2-1.233-2.895V0h4.173V.07c-1.233.706-1.233,1.654-1.233,2.965v13.2ZM4.723,15.485H0v-.07c1.076-.406,1.059-1.865,1.047-2.931,0-.11,0-.217,0-.317V3.294c0-.108,0-.223,0-.343C1.063,1.9,1.085.471,0,.07V0H5.62A6.419,6.419,0,0,1,9.272.921a2.926,2.926,0,0,1,1.3,2.491c0,1.383-.754,2.355-2.372,3.059a5.405,5.405,0,0,1,2.733,1.386,3.836,3.836,0,0,1,1.133,2.78,4.719,4.719,0,0,1-2.846,4.118A10.119,10.119,0,0,1,4.723,15.485Zm.732-7.8c-.111,0-.223,0-.333.009l-1.66.094V13.6l2.063.189c.167.016.335.024.5.024A3.893,3.893,0,0,0,8.395,13.1a2.721,2.721,0,0,0,1.043-2.25A2.8,2.8,0,0,0,8.19,8.456,4.823,4.823,0,0,0,5.455,7.686Zm-.1-6.242c-.1,0-.207.005-.308.015l-1.589.165V6.236h.783a5.778,5.778,0,0,0,2.451-.5,2.082,2.082,0,0,0,1.3-1.947,2.163,2.163,0,0,0-.819-1.738A2.922,2.922,0,0,0,5.359,1.444ZM36.7,15.484H32.2v-.07c1.076-.385,1.059-1.847,1.047-2.914,0-.108,0-.212,0-.311V3.317c0-.112,0-.23,0-.353C33.26,1.912,33.281.471,32.2.07V0H36.7V.07c-1.075.406-1.058,1.869-1.046,2.937,0,.108,0,.212,0,.311v8.871c0,.1,0,.2,0,.308-.013,1.061-.03,2.511,1.046,2.916v.069Z" transform="translate(20.353 0)" fill="#005b6a"/>
    </g>
  </g>
</svg>
