<svg id="ewallet_gopay" data-name="ewallet/gopay" xmlns="http://www.w3.org/2000/svg" width="70" height="50" viewBox="0 0 70 50">
  <g id="GOPAY">
    <rect id="Background" width="70" height="50" rx="4" fill="#fff"/>
    <g id="logo" transform="translate(6 19)">
      <path id="Combined_Shape" data-name="Combined Shape" d="M4.633,12.477a6.159,6.159,0,0,1-2.691-1.568A6.166,6.166,0,0,1,.392,8.564,6.515,6.515,0,0,1,.1,5.127,6.424,6.424,0,0,1,5.27.08,6.471,6.471,0,0,1,6.323,0c.3,0,.615.017.959.051a7.187,7.187,0,0,1,1.81.556,6.546,6.546,0,0,1,2.776,2.529A6.387,6.387,0,0,1,9.1,12.09a6.426,6.426,0,0,1-2.741.6A7.312,7.312,0,0,1,4.633,12.477ZM4.383,3.13a1.7,1.7,0,0,0-1.323.678,2.77,2.77,0,0,0-.368,1.487l-.007.126c-.006.13-.018.261-.03.389a4.756,4.756,0,0,0-.026.786c.015.177.026.358.037.533a8.445,8.445,0,0,0,.15,1.329A1.463,1.463,0,0,0,3.979,9.536,12.494,12.494,0,0,0,6.192,9.7c.292,0,.586,0,.871-.009l.29,0A12.336,12.336,0,0,0,8.616,9.55,1.511,1.511,0,0,0,9.9,8.332a7.86,7.86,0,0,0,.158-2.347,1.561,1.561,0,0,0-.94-1.141,1.534,1.534,0,0,0-.684-.1H6.182c-.645,0-1.187,0-1.734,0H4.44a.769.769,0,0,1-.261-.062c-.032-.012-.064-.023-.1-.033,0-.156-.005-.438.24-.443.289-.007.6-.01.972-.01l.794,0h.085c.3,0,.589,0,.885,0,.614,0,1.087-.008,1.536-.028a1.162,1.162,0,0,0-.764-.946,7.208,7.208,0,0,0-1.183-.194L6.3,3.029c-.188,0-.382-.007-.572-.007A6.983,6.983,0,0,0,4.383,3.13ZM8.415,7.8a2.592,2.592,0,0,1-.181-1.009.426.426,0,0,1,.526-.238.606.606,0,0,1,.264.359,5.513,5.513,0,0,0-.172.87,2.475,2.475,0,0,0-.248.126Z" transform="translate(0.017 0.067)" fill="#01acd7"/>
      <path id="Combined_Shape-2" data-name="Combined Shape" d="M3.278,10.866A5.029,5.029,0,0,1,.527,9.5a9.33,9.33,0,0,1,.781-.786c.166-.155.337-.314.5-.478A3.282,3.282,0,0,0,4,9.1a2.933,2.933,0,0,0,.527-.048,1.89,1.89,0,0,0,1.188-.617,2.167,2.167,0,0,0,.41-1.665l0-.075a2.966,2.966,0,0,0-.3.208,2.83,2.83,0,0,1-.32.219,3.184,3.184,0,0,1-1.632.414,4.444,4.444,0,0,1-1.286-.2A3.738,3.738,0,0,1,.029,4.278,3.959,3.959,0,0,1,.16,2.638,3.781,3.781,0,0,1,3.138.056,6.474,6.474,0,0,1,3.933,0,3.02,3.02,0,0,1,5.047.187a3.526,3.526,0,0,1,1.09.639c.005-.214,0-.432,0-.643V.008h1.1c.311,0,.564,0,.8,0,0,2.108,0,4.334,0,7.008v.072a3.919,3.919,0,0,1-.142,1.317,3.35,3.35,0,0,1-1.607,2,4.241,4.241,0,0,1-2.143.512A6.94,6.94,0,0,1,3.278,10.866Zm.811-9.112a2.093,2.093,0,0,0-.311.023,2.172,2.172,0,0,0-1.138.446,1.95,1.95,0,0,0-.717,1.564,1.969,1.969,0,0,0,.742,1.577,2.023,2.023,0,0,0,1.278.414,2.974,2.974,0,0,0,1.038-.2A1.592,1.592,0,0,0,6.067,4.047c-.005-.112,0-.229,0-.342a1.8,1.8,0,0,0-.154-.955A2.107,2.107,0,0,0,4.089,1.754ZM35.452,10.4q-.336,0-.67,0c.524-1.165,1.147-2.285,1.677-3.448C35.377,4.7,34.253,2.469,33.176.217c.737,0,1.475,0,2.212,0a10.909,10.909,0,0,0,.472,1.04c.551,1.215,1.128,2.42,1.689,3.632Q38.634,2.563,39.7.224c.741-.013,1.48-.015,2.221,0q-2.473,5.079-4.95,10.155c-.319.016-.638.02-.957.02C35.828,10.4,35.64,10.4,35.452,10.4Zm-17.947-.023V6.025q0-2.9,0-5.8c.308,0,.6-.006.883-.006.31,0,.647,0,1.031.006q.014.174.024.348c.005.088.012.175.017.261A3.083,3.083,0,0,1,21.673.009H21.7l.123,0a3.627,3.627,0,0,1,2.706,1.211A3.96,3.96,0,0,1,24.4,6.5a3.808,3.808,0,0,1-4.914.288l0,.883c0,.893.006,1.817-.008,2.725h-.637l-.385,0C18.194,10.4,17.849,10.4,17.505,10.377Zm3.52-8.57a1.865,1.865,0,0,0-1.448,1.111,1.867,1.867,0,0,0-.09.778c0,.115.006.235,0,.35a1.486,1.486,0,0,0,.475,1.188,2.137,2.137,0,0,0,1.484.574A2.1,2.1,0,0,0,22.9,5.248a2.093,2.093,0,0,0,.574-1.531,2.02,2.02,0,0,0-.628-1.449,2.124,2.124,0,0,0-1.391-.5A2.158,2.158,0,0,0,21.025,1.807ZM11.245,7.3A3.628,3.628,0,0,1,8.92,4.925,3.73,3.73,0,0,1,9.326,1.77,3.863,3.863,0,0,1,11.781.106,5.129,5.129,0,0,1,12.793,0a4.236,4.236,0,0,1,2.29.632,3.566,3.566,0,0,1,1.55,1.991,3.788,3.788,0,0,1-.455,3.263,3.915,3.915,0,0,1-2.863,1.64c-.194.014-.371.02-.54.02A4.2,4.2,0,0,1,11.245,7.3Zm1.52-5.56a1.721,1.721,0,0,0-.517.078,2.281,2.281,0,0,0-.764.393,2.038,2.038,0,0,0,1.349,3.61,1.922,1.922,0,0,0,1.392-.554,1.844,1.844,0,0,0,.569-1.541A1.816,1.816,0,0,0,14.257,2.4a2.123,2.123,0,0,0-1.491-.657h0Zm14,5.167a1.965,1.965,0,0,1-.667-1.6,1.826,1.826,0,0,1,.744-1.452,6.21,6.21,0,0,1,2.7-.807l.187-.026L29.863,3A2.092,2.092,0,0,0,30.9,2.584a.559.559,0,0,0-.011-.462.75.75,0,0,0-.448-.393,2.6,2.6,0,0,0-.762-.113,2.743,2.743,0,0,0-.469.041,1.649,1.649,0,0,0-1.323,1.214c-.356-.049-.714-.128-1.059-.2-.266-.058-.541-.118-.814-.164A2.786,2.786,0,0,1,27.12.763,4.256,4.256,0,0,1,29.667,0a5.962,5.962,0,0,1,.775.052A3.145,3.145,0,0,1,32.534,1.2,2.693,2.693,0,0,1,33.02,2.71V4.821q0,1.268,0,2.536c-.229,0-.484-.006-.826-.006h-.559l-.407,0c0-.132,0-.267,0-.4s0-.265,0-.4A2.8,2.8,0,0,1,29.5,7.5a5.618,5.618,0,0,1-.731.05A2.992,2.992,0,0,1,26.762,6.907ZM29.58,4.424a4.257,4.257,0,0,0-1.31.389c-.212.128-.4.373-.3.608.078.39.57.46.777.472.106.006.211.01.312.01a2.46,2.46,0,0,0,1.8-.609,1.373,1.373,0,0,0,.259-1.077c0-.117-.006-.227,0-.334A3.492,3.492,0,0,1,29.58,4.424Z" transform="translate(15.747 1.913)" fill="#010101"/>
    </g>
  </g>
</svg>
