<svg id="ewallet_ovo" data-name="ewallet/ovo" xmlns="http://www.w3.org/2000/svg" width="70" height="50" viewBox="0 0 70 50">
  <g id="OVO">
    <rect id="Background" width="70" height="50" rx="4" fill="#4c3494"/>
    <g id="logo" transform="translate(10 17)">
      <path id="Combined_Shape" data-name="Combined Shape" d="M38.492,15.674a7.967,7.967,0,0,1-4.064-4.141A8.533,8.533,0,0,1,34.9,3.925,7.91,7.91,0,0,1,39.5.338,8.371,8.371,0,0,1,41.1.037C41.36.013,41.62,0,41.878,0a8.032,8.032,0,0,1,8.081,8.059,8.229,8.229,0,0,1-2.105,5.705,7.933,7.933,0,0,1-2.789,1.979,8.416,8.416,0,0,1-6.573-.07ZM41.867,2.668a5.068,5.068,0,0,0-.671.045,4.918,4.918,0,0,0-3.428,2.128,6.124,6.124,0,0,0-.209,6.372,5.053,5.053,0,0,0,2.151,2.012,4.922,4.922,0,0,0,6.106-1.5,6.12,6.12,0,0,0,.617-6.017,5.151,5.151,0,0,0-2.048-2.354,4.859,4.859,0,0,0-2.517-.688h0ZM4.631,15.622A8,8,0,0,1,.842,11.888,8.491,8.491,0,0,1,.23,6.213,8.06,8.06,0,0,1,2.672,2.056,7.944,7.944,0,0,1,6.98.078,8.766,8.766,0,0,1,8.12,0a8.122,8.122,0,0,1,3.723.881A7.91,7.91,0,0,1,15.5,4.759a8.495,8.495,0,0,1,.656,4.45,8.2,8.2,0,0,1-1.918,4.407,7.9,7.9,0,0,1-4.354,2.576,8.6,8.6,0,0,1-1.772.184A8.3,8.3,0,0,1,4.631,15.622ZM7.473,2.71a4.875,4.875,0,0,0-2.231.873A5.255,5.255,0,0,0,3.37,6.12a6.4,6.4,0,0,0-.137,3.7,5.315,5.315,0,0,0,2.124,3.059,4.933,4.933,0,0,0,2.766.836,5.059,5.059,0,0,0,.784-.061A4.8,4.8,0,0,0,11.565,12.3,5.515,5.515,0,0,0,13.1,9.262a6.264,6.264,0,0,0-.49-3.7,5.035,5.035,0,0,0-2.319-2.391,4.882,4.882,0,0,0-2.172-.5A5.2,5.2,0,0,0,7.473,2.71ZM25.388,16.3a2.708,2.708,0,0,1-1.836-1.541Q21.014,8.918,18.478,3.074c-.528,0-1.057,0-1.585,0q0-1.315,0-2.63h6.486v2.63H21.8l3.731,8.838c1.211-2.942,2.4-5.892,3.607-8.838-.3,0-.6,0-.9,0h-.67q0-1.315,0-2.632h5.14c-.013.513.026,1.03-.019,1.541q-3.051,7.2-6.122,14.387c-.094,0-.19,0-.284,0h-.176A2.847,2.847,0,0,1,25.388,16.3Z" transform="translate(0)" fill="#fff"/>
    </g>
  </g>
</svg>
