<svg id="ewallet_dana" data-name="ewallet/dana" xmlns="http://www.w3.org/2000/svg" width="70" height="50" viewBox="0 0 70 50">
  <g id="DANA">
    <rect id="Background" width="70" height="50" rx="4" fill="#108ee9"/>
    <g id="logo" transform="translate(7 17)">
      <path id="shape" d="M7.9,16.45a7.955,7.955,0,0,1-5.341-2.2A8.327,8.327,0,0,1,0,8.36V8.151a8.414,8.414,0,0,1,2.619-6A7.968,7.968,0,0,1,7.876,0H8.11a7.937,7.937,0,0,1,4.573,1.548,8.274,8.274,0,0,1,3.1,4.694,8.359,8.359,0,0,1-1.026,6.412,7.981,7.981,0,0,1-2.833,2.739A7.821,7.821,0,0,1,8.132,16.45ZM3.327,8.778c.005.528.011,1.075,0,1.61a2.351,2.351,0,0,1,0,.252.946.946,0,0,0,.113.6,3.193,3.193,0,0,0,1.9.589c.084,0,.169,0,.254-.009a9.41,9.41,0,0,0,2.4-.63,8.2,8.2,0,0,1,2.738-.641c.077,0,.155,0,.23.006a3.555,3.555,0,0,1,1.388.412c.106.049.217.1.327.145.031-.887.026-1.789.023-2.661,0-.594-.006-1.206,0-1.808,0-.044,0-.088,0-.135a.674.674,0,0,0-.142-.522,2.929,2.929,0,0,0-1.873-.64,3.283,3.283,0,0,0-.751.086,16.88,16.88,0,0,0-1.954.657c-.392.15-.8.306-1.2.439A4.8,4.8,0,0,1,5.3,6.8a2.867,2.867,0,0,1-.818-.112,3.1,3.1,0,0,1-.712-.318c-.129-.071-.263-.145-.4-.206C3.311,7.03,3.319,7.918,3.327,8.778ZM44.243,7.7a1.809,1.809,0,0,0-.885-1.582,1.7,1.7,0,0,0-1.886.122,1.826,1.826,0,0,0-.7,1.478c0,1.565,0,3.128,0,4.693h-.6c-.381,0-.761,0-1.141,0,.025-1.642-.012-3.284.018-4.926A3.567,3.567,0,0,1,41.9,4.151,3.4,3.4,0,0,1,45.093,5.3a3.586,3.586,0,0,1,.892,2.4c0,1.569,0,3.137,0,4.706-.2,0-.4,0-.6,0-.378,0-.755,0-1.131.01C44.231,10.844,44.255,9.27,44.243,7.7ZM30.771,12.415c-.293-.008-.587-.009-.81-.009h-.92c0-.606,0-1.222,0-1.818,0-1.028-.005-2.089.012-3.131a3.55,3.55,0,0,1,3.4-3.361l.1,0h.031a3.326,3.326,0,0,1,2.339,1.008,3.528,3.528,0,0,1,1.059,2.325C36,8.452,36,9.49,36,10.493c0,.626,0,1.274,0,1.913H34.261c0-.3,0-.6,0-.891s0-.6,0-.893q-.626,0-1.252,0H30.78c0,.22,0,.446,0,.662,0,.37,0,.752-.008,1.127h0Zm1.774-3.576h.428q.643,0,1.283,0c0-.16,0-.329,0-.492a2.539,2.539,0,0,0-.417-1.832,1.664,1.664,0,0,0-1.327-.624,1.641,1.641,0,0,0-1.292.588,2.5,2.5,0,0,0-.446,1.863c0,.165.007.335,0,.5h1.765ZM21.819,12.41H19.062q0-2.079,0-4.156V4.1c.138,0,.285,0,.48,0,.252,0,.5,0,.756,0s.5,0,.747,0c.492,0,.891.007,1.253.023a4.157,4.157,0,0,1-.472,8.294Zm-.462-1.793c.113,0,.229,0,.342,0a2.768,2.768,0,0,0,1.209-.212,2.375,2.375,0,0,0,1.357-2.37A2.339,2.339,0,0,0,22.5,5.954a4.013,4.013,0,0,0-.851-.074c-.1,0-.206,0-.31,0h-.012c-.107,0-.221,0-.335,0-.067,0-.133,0-.2,0,.013,1.353.009,2.727.005,4.055l0,.676c.07,0,.145,0,.228,0C21.139,10.612,21.252,10.615,21.357,10.617Zm33.318,1.79h-.453q0-.3,0-.6c0-.391,0-.8-.007-1.193-.411.006-.835.009-1.332.009l-.809,0h-.665l-.665,0q0,.445,0,.891v.892H49v-2.3q0-1.149,0-2.3a3.716,3.716,0,0,1,.578-2.105,3.514,3.514,0,0,1,2.875-1.615c.1,0,.193,0,.287.014A3.545,3.545,0,0,1,55.8,6.62a4.86,4.86,0,0,1,.158,1.407c0,.266.008.542.038.809V12.4c-.27.007-.544.01-.889.01Zm-3.5-5.915a2.507,2.507,0,0,0-.437,1.851c0,.165.006.335,0,.5h3.479c-.005-.166,0-.34,0-.509A2.511,2.511,0,0,0,53.8,6.513a1.666,1.666,0,0,0-1.323-.62A1.64,1.64,0,0,0,51.179,6.493Z" transform="translate(0)" fill="#fff"/>
    </g>
  </g>
</svg>
