<svg id="ewallet_shopeepay" data-name="ewallet/shopeepay" xmlns="http://www.w3.org/2000/svg" width="70" height="50" viewBox="0 0 70 50">
  <g id="SHOPEEPAY">
    <rect id="Background" width="70" height="50" rx="4" fill="#f0592c"/>
    <g id="logo" transform="translate(7 9)">
      <path id="shape" d="M12.687,17.1h-.062l-3.356,0H2.462a1.651,1.651,0,0,1-1.4-.765,3.435,3.435,0,0,1-.4-1.732l-.006-.1c-.005-.086-.01-.173-.017-.257Q.551,13.153.472,12.06L.386,10.888c-.145-2-.264-3.622-.374-5.1l0-.064a1.012,1.012,0,0,1,.163-.776.977.977,0,0,1,.793-.241H1l1.65,0H4.3A5.961,5.961,0,0,1,5.689.791,2.649,2.649,0,0,1,7.614,0,2.547,2.547,0,0,1,9.428.714a6,6,0,0,1,1.537,4h1.467l.871,0c.457,0,.859,0,1.264.007H14.6a.657.657,0,0,1,.656.551,4.868,4.868,0,0,1-.019.927c-.013.148-.024.281-.03.413-.161,2.154-.321,4.35-.476,6.474l0,.034-.061.835-.081,1.117a2.4,2.4,0,0,1-.787,1.681A1.787,1.787,0,0,1,12.687,17.1ZM5.441,13.375c-.1,0-.186.1-.263.182-.025.028-.049.055-.073.077a3.431,3.431,0,0,0,1.9,1,4.089,4.089,0,0,0,.855.092A2.957,2.957,0,0,0,9.628,14.2a1.99,1.99,0,0,0,.579-2.325,2.541,2.541,0,0,0-1.43-1.22c-.251-.11-.523-.2-.787-.287A3.441,3.441,0,0,1,6.207,9.356a1.008,1.008,0,0,1-.2-.806,1.409,1.409,0,0,1,.6-.924,1.855,1.855,0,0,1,1.086-.317,3.25,3.25,0,0,1,1.141.229,2.4,2.4,0,0,1,.341.15,1.632,1.632,0,0,0,.5.187.271.271,0,0,0,.173-.24.261.261,0,0,0-.137-.25A3.482,3.482,0,0,0,7.756,6.8a3.646,3.646,0,0,0-.629.054,2.088,2.088,0,0,0-1.7,1.675,1.7,1.7,0,0,0,.6,1.516,4.559,4.559,0,0,0,1.79.869l.22.07a2.847,2.847,0,0,1,1.58,1.085,1.265,1.265,0,0,1-.148,1.475,2.258,2.258,0,0,1-1.544.652l-.11,0a4.013,4.013,0,0,1-2.246-.763A.192.192,0,0,0,5.441,13.375ZM7.64.864a2.011,2.011,0,0,0-1.6.883A5.926,5.926,0,0,0,5.177,4.71c.752,0,1.533,0,2.455,0,1.022,0,1.779,0,2.454,0a6.879,6.879,0,0,0-.725-2.7A2.181,2.181,0,0,0,8.037.914,1.585,1.585,0,0,0,7.64.864Z" transform="translate(20.364 0)" fill="#fff"/>
      <path id="shape-2" data-name="shape" d="M19.911,12.158a1.309,1.309,0,0,1-.153-.769c0-.086,0-.175,0-.258.011-1.121.009-2.259.006-3.361,0-1.155,0-2.347.008-3.52A.552.552,0,0,1,19.9,3.8a.48.48,0,0,1,.361-.189.374.374,0,0,1,.146.03c.243.015.31.23.374.437a1.255,1.255,0,0,0,.086.227,3.228,3.228,0,0,1,1.977-.73,2.416,2.416,0,0,1,1.128.27A2.774,2.774,0,0,1,25.553,5.6,2.684,2.684,0,0,1,25.3,7.876a2.8,2.8,0,0,1-2.524,1.383A3.235,3.235,0,0,1,20.786,8.6c0,.347.005.7.011,1.045.013.735.025,1.5-.025,2.241,0,.31-.283.355-.45.355A1.164,1.164,0,0,1,19.911,12.158ZM21.982,4.8A1.787,1.787,0,0,0,20.993,7a1.915,1.915,0,0,0,1.8,1.277,1.654,1.654,0,0,0,.715-.159,1.884,1.884,0,0,0,1.1-1.168,1.529,1.529,0,0,0-.15-1.344,1.828,1.828,0,0,0-1.677-.967A2.055,2.055,0,0,0,21.982,4.8Zm27.926,6.99c.558-.887,1.135-1.763,1.677-2.66-.482-1.711-.92-3.436-1.378-5.153h1.356c.308,1.23.584,2.468.9,3.7.788-1.2,1.464-2.468,2.2-3.7.445,0,.89,0,1.337,0-1.612,2.6-3.194,5.227-4.828,7.819C50.75,11.795,50.329,11.793,49.908,11.789ZM45.935,9.652a2,2,0,0,1-1.105-.318,1.4,1.4,0,0,1-.608-1.107,2,2,0,0,1,.65-1.581,2.812,2.812,0,0,1,2-.707,5.368,5.368,0,0,1,1.508.234c-.013-.09-.017-.186-.022-.289-.015-.33-.032-.671-.345-.841a1.382,1.382,0,0,0-.77-.227,2.6,2.6,0,0,0-1.581.674l-.74-.651A3.739,3.739,0,0,1,47.12,3.8c.113-.006.223-.01.326-.01a2.184,2.184,0,0,1,1.752.625,1.728,1.728,0,0,1,.353,1.506c-.139.881-.3,1.773-.461,2.634q-.084.458-.167.911c-.461,0-.841,0-1.2,0l.071-.322.07-.323a2.8,2.8,0,0,1-1.929.837Zm-.041-2.52a.972.972,0,0,0-.431.845.628.628,0,0,0,.37.551,1.423,1.423,0,0,0,.573.122,2.043,2.043,0,0,0,1.8-1.493,3.616,3.616,0,0,0-1.332-.3A1.727,1.727,0,0,0,45.895,7.132ZM38.528,9.468v0c.2-1.114.4-2.246.594-3.341.255-1.436.518-2.921.782-4.38.2,0,.418.007.694.007l.571,0h.079c.215,0,.43,0,.645,0,.372,0,.677.005.961.016a1.959,1.959,0,0,1,1.885,1.591,2.5,2.5,0,0,1-.488,1.87,3.028,3.028,0,0,1-1.937,1.2,11.726,11.726,0,0,1-1.545.074c-.16,0-.32,0-.481,0-.063.373-.131.751-.2,1.118v.005c-.105.6-.215,1.216-.311,1.827l-.612.007h-.014l-.627.007Zm2.651-4.151h.029l.054,0c.131,0,.268.01.4.01a1.917,1.917,0,0,0,1.423-.459,1.361,1.361,0,0,0,.394-1.164.856.856,0,0,0-.5-.672,3.332,3.332,0,0,0-.96-.117c-.146,0-.293,0-.436.009h-.038c-.134,0-.272.008-.406.008-.074,0-.141,0-.205,0-.063.338-.125.684-.185,1.019-.081.449-.164.91-.249,1.364.086-.006.173-.008.261-.008C40.9,5.306,41.041,5.312,41.179,5.317ZM33.744,8.744a2.958,2.958,0,0,1-.958-2.307,3,3,0,0,1,1.049-2.3,2.576,2.576,0,0,1,1.611-.543,2.7,2.7,0,0,1,1.925.779A2.572,2.572,0,0,1,37.939,6.6a.966.966,0,0,1-.658.168c-.06,0-.122,0-.181.006-.354,0-.707,0-1.061,0h-.079l-.85,0c-.528,0-.958,0-1.349.015l.074.191A1.762,1.762,0,0,0,34.7,8.14a2.366,2.366,0,0,0,.885.163,4.041,4.041,0,0,0,1.528-.343.4.4,0,0,1,.231-.081.5.5,0,0,1,.43.417.448.448,0,0,1-.2.529,3.933,3.933,0,0,1-1.948.525A3.022,3.022,0,0,1,33.744,8.744Zm.143-2.968c.515,0,1.021.007,1.547.007.545,0,1.051,0,1.547-.009a1.458,1.458,0,0,0-1.373-1.138,1.353,1.353,0,0,0-.18.012,1.33,1.33,0,0,0-.157-.01A1.586,1.586,0,0,0,33.887,5.776Zm-6.2,3.074a2.93,2.93,0,0,1-1.1-2.414,2.956,2.956,0,0,1,1.183-2.4,2.55,2.55,0,0,1,1.475-.451A2.471,2.471,0,0,1,31.576,5a2.261,2.261,0,0,1,.143,1.643,1.023,1.023,0,0,1-.587.13c-.053,0-.106,0-.158.006h-.342l-.815,0h-.008l-.83,0c-.552,0-1,.005-1.4.018.031.078.061.157.092.241A1.644,1.644,0,0,0,28.44,8.1a2.216,2.216,0,0,0,.947.2,4.358,4.358,0,0,0,1.606-.367.358.358,0,0,1,.177-.049.512.512,0,0,1,.434.421.408.408,0,0,1-.186.483,3.773,3.773,0,0,1-1.967.555A3.232,3.232,0,0,1,27.687,8.851Zm.929-4.113c-.41.113-.616.483-.815.841-.037.067-.073.132-.11.194.455.007.962.012,1.508.012.493,0,1.017,0,1.6-.012-.037-.068-.072-.142-.106-.213a1.4,1.4,0,0,0-.619-.76,2.074,2.074,0,0,0-.8-.153A2.425,2.425,0,0,0,28.616,4.738ZM13.771,8.286a2.864,2.864,0,0,1-.35-3.2,3.123,3.123,0,0,1,1.872-1.412,2.511,2.511,0,0,1,.7-.1,3.008,3.008,0,0,1,2.794,2.061,2.945,2.945,0,0,1-.366,2.39A2.873,2.873,0,0,1,15.977,9.27,2.8,2.8,0,0,1,13.771,8.286Zm1.836-3.608a1.753,1.753,0,0,0-1.393,1.176,1.637,1.637,0,0,0,.291,1.7,1.752,1.752,0,0,0,1.45.707,1.872,1.872,0,0,0,1.819-1.231,1.619,1.619,0,0,0-.183-1.538,1.917,1.917,0,0,0-1.555-.875A1.6,1.6,0,0,0,15.607,4.678ZM7.025,9.064a4.948,4.948,0,0,1-.061-.915c.015-2.471,0-4.942.006-7.413,0-.289.044-.747.437-.712a.467.467,0,0,1,.561.512c.057,1.2.011,2.4.013,3.6a3.128,3.128,0,0,1,1.839-.589,2.308,2.308,0,0,1,2.344,2.192c.008,1,0,2-.009,3.005.087.521-.687.7-.961.311-.17-1.2.087-2.428-.13-3.621a1.546,1.546,0,0,0-2.6-.293c-.937,1.1-.206,2.638-.562,3.9a.462.462,0,0,1-.422.224A.591.591,0,0,1,7.025,9.064ZM.139,8.012c-.377-.36.105-.688.373-.911a5.117,5.117,0,0,0,2.8,1.156,2.008,2.008,0,0,0,1.7-.827A1.36,1.36,0,0,0,4.756,5.8c-1.016-.985-2.614-.94-3.64-1.921A2.257,2.257,0,0,1,1.778.3,3.876,3.876,0,0,1,5.431.676c.486.248.139,1.2-.4.9a3.482,3.482,0,0,0-2.624-.427,1.215,1.215,0,0,0-.466,2.082c1.03.809,2.51.779,3.445,1.755A2.358,2.358,0,0,1,5.4,8.54a3.3,3.3,0,0,1-2.116.715A4.8,4.8,0,0,1,.139,8.012Z" transform="translate(0 20.154)" fill="#fff"/>
    </g>
  </g>
</svg>
